<?xml version="1.0" encoding="utf-8"?>
<svg viewBox="57.201 91.0996 306.3627 188.7047" width="306.3627" height="188.7047" xmlns="http://www.w3.org/2000/svg" xmlns:xlink="http://www.w3.org/1999/xlink" xmlns:bx="https://boxy-svg.com">
  <defs>
    <pattern id="pattern-1-0" patternTransform="matrix(0.192386, 0, 0, 0.213777, 129.949917, 64.5587)" xlink:href="#pattern-1"/>
    <pattern id="pattern-1" viewBox="0 0 16 16" patternUnits="userSpaceOnUse" preserveAspectRatio="none" width="100" height="100" bx:pinned="true">
      <rect width="16" height="16" style="stroke: rgba(126, 126, 126, 0); fill: rgb(171, 171, 171);"/>
      <path d="M 56.744 32.119 L 58.367 36.71 L 56.744 41.301 L 55.121 36.71 Z" style="transform-box: fill-box; transform-origin: 50% 50%; fill: rgb(146, 146, 146); stroke: rgba(0, 0, 0, 0);" transform="matrix(0.707095, 0.707119, -0.707095, 0.707118, -45.639, -31.815966)" bx:shape="n-gon 56.744 36.71 1.623 4.591 4 0 1@dfff5add"/>
      <path d="M 56.744 32.119 L 58.367 36.71 L 56.744 41.301 L 55.121 36.71 Z" style="transform-origin: 56.744px 36.71px; fill: rgb(146, 146, 146); stroke: rgba(0, 0, 0, 0);" transform="matrix(0.707095, 0.707119, -0.707095, 0.707118, -51.850109, -25.604691)" bx:shape="n-gon 56.744 36.71 1.623 4.591 4 0 1@dfff5add"/>
      <ellipse style="fill: rgb(146, 146, 146); stroke: rgba(0, 0, 0, 0);" cx="8.072" cy="8.263" rx="1.299" ry="1.299"/>
    </pattern>
  </defs>
  <g transform="matrix(1.0494799613952637, 0, 0, 1.0548410415649414, -10.316224098205566, -9.50270938873291)" style="">
    <rect style="stroke: rgba(0, 0, 0, 0); fill: rgb(221, 213, 115);" x="64.334" y="95.372" width="286.117" height="77.314" rx="10" ry="10"/>
    <path style="stroke: rgba(162, 232, 109, 0); fill: rgb(221, 213, 115);" d="M 65.462 163.656 C 65.462 163.656 78.635 181.115 69.985 197.463 C 62.698 211.235 62.058 235.936 74.491 233.07 C 84.148 230.844 84.962 218.284 79.603 196.801 C 73.14 170.892 81.807 174.551 82.957 174.379 C 85.328 174.024 88.378 179.453 84.457 191.601 C 80.462 203.978 82.086 210.212 90.857 210.497 C 98.182 210.735 100.568 203.305 96.513 193.365 C 91.968 182.224 95.372 173.251 98.758 173.251 C 101.58 173.251 110.516 184.272 102.222 218.845 C 95.806 245.589 89.743 274.266 108.352 274.266 C 127.719 274.266 128.029 251.989 117.437 219.967 C 113 206.553 117.945 173.128 120.876 173.128 C 123.028 173.128 128.766 187.522 125.97 192.24 C 122.215 198.575 123.025 216.013 133.747 216.14 C 143.384 216.254 147.575 197.768 139.992 190.898 C 132.409 184.028 141.647 174.38 143.341 174.38 C 144.623 174.38 152.69 185.809 146.92 200.542 C 141.796 213.625 142.824 237.02 154.064 237.02 C 165.326 237.02 166.899 217.229 161.302 202.051 C 155.542 186.428 161.399 175.508 164.221 175.508 C 164.881 175.508 170.925 181.06 166.478 191.797 C 162.214 202.091 162.973 213.812 170.429 213.882 C 177.299 213.946 181.967 202.383 177.871 192.495 C 173.364 181.615 177.764 175.508 180.022 175.508 C 180.872 175.508 200.018 177.67 187.618 207.606 C 181.286 222.892 187.25 241.6 198.646 241.535 C 210.703 241.467 219.546 223.637 212.836 207.438 C 198.091 171.84 209.367 178.33 213.882 178.33 C 217.856 178.33 228.049 187.885 224.618 196.169 C 221.884 202.77 216.031 219.526 230.249 219.526 C 239.916 219.526 238.132 203.236 235.447 196.753 C 231.505 187.237 241.534 174.944 244.921 174.944 C 248.053 174.944 265.786 185.825 253.551 215.362 C 247.062 231.027 256.195 239.277 265.801 239.277 C 274.35 239.277 282.766 227.6 277.979 216.044 C 263.181 180.319 283.86 175.508 287.81 175.508 C 290.494 175.508 295.629 187.826 289.674 202.202 C 285.204 212.993 292.228 224.892 300.226 224.605 C 307.837 224.332 312.47 212.381 308.235 202.156 C 302.257 187.725 304.1 176.072 309.255 176.072 C 313.776 176.072 321.205 177.136 317.319 186.517 C 310.723 202.442 311.496 208.804 322.8 208.804 C 334.149 208.804 333.735 195.662 327.882 185.235 C 325.172 180.408 330.693 176.593 333.967 176.593 C 338.605 176.593 342.962 187.649 335.777 204.996 C 331.5 215.321 337.018 225.733 344.81 225.733 C 353.542 225.733 360.023 219.179 353.756 204.048 C 343.321 178.856 349.887 164.222 349.887 164.222"/>
  </g>
  <g>
    <rect style="fill: rgb(98, 152, 57); stroke: rgba(0, 0, 0, 0);" x="64.334" y="95.372" width="286.117" height="77.314" rx="10" ry="10"/>
    <path style="stroke: rgba(162, 232, 109, 0); fill: rgb(98, 152, 57);" d="M 65.462 163.656 C 65.462 163.656 78.635 181.115 69.985 197.463 C 62.698 211.235 62.058 235.936 74.491 233.07 C 84.148 230.844 84.962 218.284 79.603 196.801 C 73.14 170.892 81.807 174.551 82.957 174.379 C 85.328 174.024 88.378 179.453 84.457 191.601 C 80.462 203.978 82.086 210.212 90.857 210.497 C 98.182 210.735 100.568 203.305 96.513 193.365 C 91.968 182.224 95.372 173.251 98.758 173.251 C 101.58 173.251 110.516 184.272 102.222 218.845 C 95.806 245.589 89.743 274.266 108.352 274.266 C 127.719 274.266 128.029 251.989 117.437 219.967 C 113 206.553 117.945 173.128 120.876 173.128 C 123.028 173.128 128.766 187.522 125.97 192.24 C 122.215 198.575 123.025 216.013 133.747 216.14 C 143.384 216.254 147.575 197.768 139.992 190.898 C 132.409 184.028 141.647 174.38 143.341 174.38 C 144.623 174.38 152.69 185.809 146.92 200.542 C 141.796 213.625 142.824 237.02 154.064 237.02 C 165.326 237.02 166.899 217.229 161.302 202.051 C 155.542 186.428 161.399 175.508 164.221 175.508 C 164.881 175.508 170.925 181.06 166.478 191.797 C 162.214 202.091 162.973 213.812 170.429 213.882 C 177.299 213.946 181.967 202.383 177.871 192.495 C 173.364 181.615 177.764 175.508 180.022 175.508 C 180.872 175.508 200.018 177.67 187.618 207.606 C 181.286 222.892 187.25 241.6 198.646 241.535 C 210.703 241.467 219.546 223.637 212.836 207.438 C 198.091 171.84 209.367 178.33 213.882 178.33 C 217.856 178.33 228.049 187.885 224.618 196.169 C 221.884 202.77 216.031 219.526 230.249 219.526 C 239.916 219.526 238.132 203.236 235.447 196.753 C 231.505 187.237 241.534 174.944 244.921 174.944 C 248.053 174.944 265.786 185.825 253.551 215.362 C 247.062 231.027 256.195 239.277 265.801 239.277 C 274.35 239.277 282.766 227.6 277.979 216.044 C 263.181 180.319 283.86 175.508 287.81 175.508 C 290.494 175.508 295.629 187.826 289.674 202.202 C 285.204 212.993 292.228 224.892 300.226 224.605 C 307.837 224.332 312.47 212.381 308.235 202.156 C 302.257 187.725 304.1 176.072 309.255 176.072 C 313.776 176.072 321.205 177.136 317.319 186.517 C 310.723 202.442 311.496 208.804 322.8 208.804 C 334.149 208.804 333.735 195.662 327.882 185.235 C 325.172 180.408 330.693 176.593 333.967 176.593 C 338.605 176.593 342.962 187.649 335.777 204.996 C 331.5 215.321 337.018 225.733 344.81 225.733 C 353.542 225.733 360.023 219.179 353.756 204.048 C 343.321 178.856 349.887 164.222 349.887 164.222"/>
  </g>
  <rect style="stroke-linejoin: round; stroke-width: 2px; stroke: rgba(0, 0, 0, 0.537); fill: url('#pattern-1-0'); paint-order: fill; transform-origin: 178.773px 115.637px;" x="71.217" y="85.33" width="215.113" height="60.615" transform="matrix(0.999065101147, -0.043242998421, 0.043242998421, 0.999065101147, 26.362486914016, 17.576466002877)"/>
  <text style="fill: rgb(51, 51, 51); font-family: Impact; font-size: 61px; white-space: pre; transform-origin: 200.751px 130.362px;" x="144.47" y="154.628" transform="matrix(0.99862998724, -0.052336014807, 0.052336014807, 0.99862998724, 0.000087825863, 2.821724970018)">PLAY</text>
</svg>