<?xml version="1.0" encoding="utf-8"?>
<svg viewBox="-4 -4 108 108" xmlns="http://www.w3.org/2000/svg">
  <ellipse style="stroke-width: 5px; fill: rgb(225, 99, 29); stroke: rgba(225, 99, 29, 0);" cx="50" cy="50" rx="54" ry="54"/>
  <g transform="matrix(1, 0, 0, 1, 315.0000305175782, 0.0019920000340789557)">
    <circle fill="#BAB1AB" cx="-265" cy="49.998" r="50"/>
  </g>
  <path fill="#0D0F0F" d="M 90.695 48.621 C 90.695 54.139 88.687 57.902 84.675 59.908 C 83.503 60.494 79.825 61.287 73.638 62.291 C 69.626 62.961 67.62 64.508 67.62 66.93 L 67.62 77.088 C 67.62 77.51 67.745 78.803 67.995 80.977 L 68.372 84.991 C 68.372 86.246 68.079 88.297 67.493 91.137 C 65.905 91.471 64.065 91.846 61.975 92.269 C 61.305 89.758 60.971 88.045 60.971 87.123 C 60.971 86.707 61.076 86.078 61.284 85.241 C 61.491 84.407 61.6 83.78 61.6 83.358 C 61.6 82.778 61.08 81.145 60.041 78.471 L 58.096 78.471 C 57.838 78.889 57.752 79.432 57.836 80.1 C 58.17 81.522 58.295 82.733 58.213 83.737 C 56.791 84.741 54.826 86.078 52.318 87.75 C 51.732 87.584 51.525 87.5 51.689 87.5 L 51.689 78.596 C 51.525 78.18 51.105 78.015 50.435 78.094 L 48.931 78.094 L 47.427 89.881 C 46.253 89.965 44.835 89.965 43.163 89.881 C 42.575 87.123 41.532 83.028 40.028 77.592 L 39.024 77.592 C 38.102 80.521 37.602 82.111 37.518 82.361 C 37.518 82.695 37.622 83.342 37.832 84.303 C 38.039 85.265 38.145 85.912 38.145 86.246 C 38.145 86.496 38.061 87.123 37.895 88.127 L 37.518 91.137 C 37.35 91.303 37.141 91.387 36.891 91.387 C 34.383 91.387 32.709 90.76 31.875 89.508 C 31.039 88.252 30.703 86.496 30.871 84.237 L 31.875 69.19 C 31.875 68.938 31.957 68.604 32.125 68.186 C 32.289 67.768 32.375 67.475 32.375 67.309 C 32.375 66.639 31.664 65.301 30.244 63.295 C 29.996 63.213 28.695 62.918 26.357 62.416 C 24.933 62.082 22.132 61.498 17.955 60.66 C 12.184 59.576 9.301 54.935 9.301 46.74 C 9.301 34.533 14.319 24.375 24.352 16.265 C 24.766 18.523 25.479 21.531 26.481 25.294 C 27.235 25.464 28.866 25.839 31.372 26.423 C 31.876 26.591 34.425 27.511 39.024 29.183 C 36.68 27.761 33.631 25.464 29.868 22.285 C 28.446 20.613 27.735 17.814 27.735 13.885 C 27.735 12.965 29.325 11.877 32.503 10.621 C 35.343 9.451 37.478 8.785 38.899 8.615 C 43.413 8.033 46.883 7.736 49.309 7.736 C 59.758 7.736 68.2 10.414 74.637 15.765 C 72.549 18.191 68.953 20.779 63.854 23.538 C 65.862 23.622 68.788 22.831 72.633 21.155 C 76.477 19.485 78.108 18.647 77.524 18.647 C 78.192 18.647 79.532 19.987 81.538 22.661 C 83.042 24.667 84.253 26.468 85.175 28.052 C 87.849 32.82 89.646 37.96 90.568 43.478 C 90.568 45.404 90.609 46.783 90.693 47.617 L 90.693 48.621 L 90.695 48.621 Z M 42.664 50.879 C 42.664 47.285 41.096 43.877 37.961 40.656 C 34.824 37.437 31.459 35.83 27.865 35.83 C 24.687 35.83 21.888 37.178 19.463 39.869 C 17.037 42.562 15.826 45.551 15.826 48.832 C 15.826 51.691 17.205 53.545 19.965 54.385 C 21.721 54.891 24.184 55.186 27.363 55.268 L 34.261 55.268 C 39.859 55.352 42.664 53.889 42.664 50.879 Z M 56.332 66.432 L 56.332 62.543 C 55.748 61.457 55.162 60.328 54.578 59.156 C 54.076 57.482 53.156 55.142 51.818 52.131 L 50.437 66.805 C 50.437 67.977 50.187 68.561 49.685 68.561 C 49.351 68.561 49.101 68.479 48.933 68.313 C 48.347 59.45 48.054 55.604 48.054 56.772 L 48.054 52.385 C 47.886 52.131 47.679 52.006 47.429 52.006 C 44.585 54.936 43.165 59.658 43.165 66.178 C 43.165 69.774 43.495 71.989 44.167 72.826 C 44.837 72.66 45.589 72.367 46.425 71.949 C 46.759 71.781 47.72 71.697 49.312 71.697 C 50.896 71.697 52.822 72.199 55.078 73.201 C 55.914 73.201 56.332 70.945 56.332 66.432 Z M 84.676 48.957 C 84.676 45.59 83.422 42.582 80.914 39.932 C 78.404 37.284 75.519 35.957 72.262 35.957 C 68.75 35.957 65.467 37.564 62.416 40.783 C 59.363 44.002 57.838 47.367 57.838 50.879 C 57.838 53.807 59.258 55.268 62.102 55.268 L 76.524 55.268 C 81.957 55.186 84.676 53.082 84.676 48.957 Z"/>
</svg>