<?xml version="1.0" encoding="utf-8"?>
<svg viewBox="506.7969 69.8234 100 100" xmlns="http://www.w3.org/2000/svg">
  <g transform="matrix(1, 0, 0, 1, 821.7969360351562, 69.82536315917972)">
    <circle fill="#BAB1AB" cx="-265" cy="49.998" r="50"/>
  </g>
  <path fill="#0D0F0F" d="M 597.492 118.444 C 597.492 123.962 595.484 127.725 591.472 129.731 C 590.3 130.317 586.622 131.11 580.435 132.114 C 576.423 132.784 574.417 134.331 574.417 136.753 L 574.417 146.911 C 574.417 147.333 574.542 148.626 574.792 150.8 L 575.169 154.814 C 575.169 156.069 574.876 158.12 574.29 160.96 C 572.702 161.294 570.862 161.669 568.772 162.092 C 568.102 159.581 567.768 157.868 567.768 156.946 C 567.768 156.53 567.873 155.901 568.081 155.064 C 568.288 154.23 568.397 153.603 568.397 153.181 C 568.397 152.601 567.877 150.968 566.838 148.294 L 564.893 148.294 C 564.635 148.712 564.549 149.255 564.633 149.923 C 564.967 151.345 565.092 152.556 565.01 153.56 C 563.588 154.564 561.623 155.901 559.115 157.573 C 558.529 157.407 558.322 157.323 558.486 157.323 L 558.486 148.419 C 558.322 148.003 557.902 147.838 557.232 147.917 L 555.728 147.917 L 554.224 159.704 C 553.05 159.788 551.632 159.788 549.96 159.704 C 549.372 156.946 548.329 152.851 546.825 147.415 L 545.821 147.415 C 544.899 150.344 544.399 151.934 544.315 152.184 C 544.315 152.518 544.419 153.165 544.629 154.126 C 544.836 155.088 544.942 155.735 544.942 156.069 C 544.942 156.319 544.858 156.946 544.692 157.95 L 544.315 160.96 C 544.147 161.126 543.938 161.21 543.688 161.21 C 541.18 161.21 539.506 160.583 538.672 159.331 C 537.836 158.075 537.5 156.319 537.668 154.06 L 538.672 139.013 C 538.672 138.761 538.754 138.427 538.922 138.009 C 539.086 137.591 539.172 137.298 539.172 137.132 C 539.172 136.462 538.461 135.124 537.041 133.118 C 536.793 133.036 535.492 132.741 533.154 132.239 C 531.73 131.905 528.929 131.321 524.752 130.483 C 518.981 129.399 516.098 124.758 516.098 116.563 C 516.098 104.356 521.116 94.198 531.149 86.088 C 531.563 88.346 532.276 91.354 533.278 95.117 C 534.032 95.287 535.663 95.662 538.169 96.246 C 538.673 96.414 541.222 97.334 545.821 99.006 C 543.477 97.584 540.428 95.287 536.665 92.108 C 535.243 90.436 534.532 87.637 534.532 83.708 C 534.532 82.788 536.122 81.7 539.3 80.444 C 542.14 79.274 544.275 78.608 545.696 78.438 C 550.21 77.856 553.68 77.559 556.106 77.559 C 566.555 77.559 574.997 80.237 581.434 85.588 C 579.346 88.014 575.75 90.602 570.651 93.361 C 572.659 93.445 575.585 92.654 579.43 90.978 C 583.274 89.308 584.905 88.47 584.321 88.47 C 584.989 88.47 586.329 89.81 588.335 92.484 C 589.839 94.49 591.05 96.291 591.972 97.875 C 594.646 102.643 596.443 107.783 597.365 113.301 C 597.365 115.227 597.406 116.606 597.49 117.44 L 597.49 118.444 L 597.492 118.444 L 597.492 118.444 Z M 549.461 120.702 C 549.461 117.108 547.893 113.7 544.758 110.479 C 541.621 107.26 538.256 105.653 534.662 105.653 C 531.484 105.653 528.685 107.001 526.26 109.692 C 523.834 112.385 522.623 115.374 522.623 118.655 C 522.623 121.514 524.002 123.368 526.762 124.208 C 528.518 124.714 530.981 125.009 534.16 125.091 L 541.058 125.091 C 546.656 125.175 549.461 123.712 549.461 120.702 Z M 563.129 136.255 L 563.129 132.366 C 562.545 131.28 561.959 130.151 561.375 128.979 C 560.873 127.305 559.953 124.965 558.615 121.954 L 557.234 136.628 C 557.234 137.8 556.984 138.384 556.482 138.384 C 556.148 138.384 555.898 138.302 555.73 138.136 C 555.144 129.273 554.851 125.427 554.851 126.595 L 554.851 122.208 C 554.683 121.954 554.476 121.829 554.226 121.829 C 551.382 124.759 549.962 129.481 549.962 136.001 C 549.962 139.597 550.292 141.812 550.964 142.649 C 551.634 142.483 552.386 142.19 553.222 141.772 C 553.556 141.604 554.517 141.52 556.109 141.52 C 557.693 141.52 559.619 142.022 561.875 143.024 C 562.711 143.024 563.129 140.768 563.129 136.255 Z M 591.473 118.78 C 591.473 115.413 590.219 112.405 587.711 109.755 C 585.201 107.107 582.316 105.78 579.059 105.78 C 575.547 105.78 572.264 107.387 569.213 110.606 C 566.16 113.825 564.635 117.19 564.635 120.702 C 564.635 123.63 566.055 125.091 568.899 125.091 L 583.321 125.091 C 588.754 125.009 591.473 122.905 591.473 118.78 Z" transform="matrix(1, 0, 0, 1, 7.105427357601002e-15, 2.842170943040401e-14)"/>
</svg>