<?xml version="1.0" encoding="utf-8"?>
<svg viewBox="-4 -4 108 108" xmlns="http://www.w3.org/2000/svg">
  <ellipse style="stroke-width: 5px; fill: rgb(225, 99, 29); stroke: rgba(225, 99, 29, 0);" cx="50" cy="50" rx="54" ry="54"/>
  <g transform="matrix(1, 0, 0, 1, 420.0000305175782, 0)">
    <circle fill="#C1D7E9" cx="-370" cy="50" r="50"/>
  </g>
  <path fill="#0D0F0F" d="M 67.488 83.719 C 62.701 88.59 56.804 91.026 49.8 91.026 C 41.939 91.026 35.702 88.336 31.089 82.953 C 26.73 77.826 24.552 71.291 24.552 63.347 C 24.552 54.804 28.269 45.061 35.702 34.123 C 41.766 25.154 48.901 17.293 57.104 10.543 C 55.907 16.012 55.311 19.898 55.311 22.205 C 55.311 27.504 56.975 32.672 60.307 37.713 C 64.409 43.693 67.526 48.139 69.664 51.041 C 72.996 56.084 74.662 60.996 74.662 65.778 C 74.664 72.871 72.271 78.852 67.488 83.719 Z M 67.359 56.357 C 66.078 53.496 64.582 51.595 62.873 50.654 C 63.129 51.168 63.258 51.894 63.258 52.834 C 63.258 54.629 62.746 57.191 61.719 60.523 L 60.055 65.65 C 60.055 68.64 61.547 70.136 64.539 70.136 C 67.699 70.136 69.281 68.041 69.281 63.855 C 69.281 61.721 68.641 59.223 67.359 56.357 Z"/>
</svg>