<?xml version="1.0" encoding="utf-8"?>
<svg viewBox="401.7969 69.8254 100 100" xmlns="http://www.w3.org/2000/svg">
  <g transform="matrix(1, 0, 0, 1, 821.7969360351562, 69.82536315917972)">
    <circle fill="#C1D7E9" cx="-370" cy="50" r="50"/>
  </g>
  <path fill="#0D0F0F" d="M 469.285 153.544 C 464.498 158.415 458.601 160.851 451.597 160.851 C 443.736 160.851 437.499 158.161 432.886 152.778 C 428.527 147.651 426.349 141.116 426.349 133.172 C 426.349 124.629 430.066 114.886 437.499 103.948 C 443.563 94.979 450.698 87.118 458.901 80.368 C 457.704 85.837 457.108 89.723 457.108 92.03 C 457.108 97.329 458.772 102.497 462.104 107.538 C 466.206 113.518 469.323 117.964 471.461 120.866 C 474.793 125.909 476.459 130.821 476.459 135.603 C 476.461 142.696 474.068 148.677 469.285 153.544 Z M 469.156 126.182 C 467.875 123.321 466.379 121.42 464.67 120.479 C 464.926 120.993 465.055 121.719 465.055 122.659 C 465.055 124.454 464.543 127.016 463.516 130.348 L 461.852 135.475 C 461.852 138.465 463.344 139.961 466.336 139.961 C 469.496 139.961 471.078 137.866 471.078 133.68 C 471.078 131.546 470.438 129.048 469.156 126.182 Z" transform="matrix(1, 0, 0, 1, 7.105427357601002e-15, 2.842170943040401e-14)"/>
</svg>