<?xml version="1.0" encoding="utf-8"?>
<svg viewBox="716.7969 69.8254 100 100" xmlns="http://www.w3.org/2000/svg">
  <g transform="matrix(1, 0, 0, 1, 821.7969360351562, 69.82536315917972)">
    <path fill="#A3C095" d="M-5,49.998C-5,77.613-27.385,100-55.002,100C-82.615,100-105,77.613-105,49.998 C-105,22.385-82.615,0-55.002,0C-27.385,0-5,22.385-5,49.998z"/>
  </g>
  <path fill="#0D0F0F" d="M 810.559 126.05 C 810.559 127.718 809.914 129.214 808.623 130.548 C 807.334 131.88 805.853 132.546 804.187 132.546 C 801.525 132.546 799.564 131.296 798.318 128.798 L 792.447 128.548 C 791.195 128.548 788.738 129.091 785.076 130.173 C 781.162 131.255 778.912 132.13 778.33 132.796 C 777.414 133.794 776.666 136.128 776.082 139.792 C 775.58 142.79 775.334 144.997 775.334 146.413 C 775.334 148.659 775.686 150.306 776.395 151.347 C 777.104 152.388 778.561 153.263 780.766 153.97 C 782.971 154.677 784.327 155.074 784.827 155.157 C 785.159 155.157 785.7 155.116 786.452 155.032 L 787.95 155.032 C 789.03 155.032 790.155 155.202 791.323 155.532 C 792.989 156.032 793.698 156.698 793.448 157.532 C 792.28 157.366 790.241 157.616 787.327 158.282 L 790.823 160.03 C 790.823 161.03 789.407 161.528 786.577 161.528 C 785.825 161.528 784.806 161.362 783.514 161.03 C 782.223 160.694 781.369 160.53 780.955 160.53 L 779.33 160.53 C 779.248 161.362 778.996 162.61 778.58 164.276 C 777.162 164.192 775.5 163.358 773.584 161.778 C 771.666 160.198 770.461 159.405 769.963 159.405 C 769.461 159.405 768.752 160.198 767.838 161.778 C 766.92 163.358 766.463 164.442 766.463 165.026 C 765.381 164.442 764.467 163.358 763.713 161.778 C 763.381 160.694 763.006 159.612 762.592 158.53 C 761.76 158.614 760.217 160.364 757.971 163.778 L 757.344 163.778 C 757.178 163.526 756.549 161.778 755.471 158.53 C 752.889 157.698 750.475 157.282 748.225 157.282 C 747.143 157.282 745.477 157.532 743.229 158.03 L 739.733 157.782 C 740.231 157.282 741.688 156.325 744.104 154.909 C 746.934 153.243 749.1 152.409 750.6 152.409 C 750.846 152.409 751.178 152.452 751.6 152.534 C 752.014 152.62 752.35 152.659 752.6 152.659 C 753.178 152.659 754.118 152.347 755.409 151.721 C 756.7 151.098 757.448 150.535 757.655 150.037 C 757.866 149.533 757.971 148.244 757.971 146.162 C 757.971 141.416 756.721 137.877 754.221 135.545 C 752.053 133.463 748.475 131.965 743.477 131.047 C 742.145 135.793 738.397 138.17 732.237 138.17 C 730.237 138.17 728.239 136.963 726.241 134.547 C 724.245 132.131 723.245 129.924 723.245 127.926 C 723.245 124.844 724.532 122.305 727.114 120.303 C 725.034 118.141 723.993 115.934 723.993 113.686 C 723.993 111.602 724.636 109.772 725.929 108.186 C 727.22 106.608 728.906 105.69 730.988 105.438 C 730.822 102.776 731.695 100.942 733.611 99.942 C 732.695 99.028 732.238 97.405 732.238 95.073 C 732.238 92.325 733.154 90.034 734.986 88.202 C 736.816 86.37 739.107 85.452 741.855 85.452 C 744.855 85.452 747.312 86.497 749.226 88.577 C 751.642 80.333 756.847 76.21 764.839 76.21 C 769.003 76.21 772.667 77.876 775.833 81.208 C 776.999 82.456 777.581 83.124 777.581 83.204 C 776.581 83.204 777.083 83.016 779.081 82.643 C 781.077 82.268 782.534 82.08 783.454 82.08 C 786.7 82.08 789.573 83.287 792.073 85.703 C 794.237 87.869 795.737 90.615 796.571 93.947 C 797.151 94.031 798.069 94.279 799.319 94.695 C 801.149 95.615 802.067 97.193 802.067 99.443 C 802.067 99.861 801.731 100.652 801.067 101.816 C 806.395 104.814 809.061 108.978 809.061 114.308 C 809.061 115.806 808.479 117.892 807.313 120.555 C 809.479 121.802 810.559 123.636 810.559 126.05 Z M 759.092 131.546 L 759.092 129.923 C 759.092 128.009 758.156 126.259 756.283 124.677 C 754.408 123.095 752.513 122.304 750.599 122.304 C 748.265 122.304 746.103 122.845 744.103 123.925 C 748.516 123.677 753.514 126.218 759.092 131.546 Z M 756.846 116.057 C 755.596 114.639 754.514 113.182 753.596 111.684 C 750.098 112.6 748.35 113.641 748.35 114.805 C 749.35 114.725 750.807 114.91 752.721 115.369 C 754.635 115.828 756.012 116.057 756.846 116.057 Z M 764.467 112.184 L 764.467 106.688 C 762.467 106.356 761.256 106.188 760.844 106.188 L 760.844 108.061 L 764.467 112.184 Z M 780.705 108.686 C 779.705 108.27 777.83 107.436 775.084 106.188 L 775.084 116.93 C 778.996 114.68 780.869 111.932 780.705 108.686 Z M 787.572 123.427 L 784.826 120.054 C 783.162 121.221 781.474 122.408 779.765 123.615 C 778.056 124.822 776.579 126.178 775.333 127.675 C 779.08 125.673 783.162 124.261 787.572 123.427 Z" transform="matrix(1, 0, 0, 1, 7.105427357601002e-15, 2.842170943040401e-14)"/>
</svg>