<?xml version="1.0" encoding="utf-8"?>
<svg viewBox="611.7969 69.8254 100 100" xmlns="http://www.w3.org/2000/svg">
  <g transform="matrix(1, 0, 0, 1, 821.7969360351562, 69.82536315917972)">
    <circle fill="#E49977" cx="-160" cy="50" r="50"/>
  </g>
  <path fill="#0D0F0F" d="M 703.762 136.442 C 700.026 145.354 692.602 149.809 681.487 149.809 C 679.45 149.809 677.241 150.063 674.866 150.571 C 671.302 151.335 669.52 152.399 669.52 153.757 C 669.52 154.181 669.815 154.667 670.411 155.22 C 671.003 155.773 671.515 156.046 671.938 156.046 C 669.815 156.046 671.258 156.11 676.264 156.237 C 681.272 156.364 684.412 156.428 685.686 156.428 C 678.303 160.754 665.954 162.747 648.643 162.409 C 642.955 162.325 638.077 159.821 634.004 154.899 C 630.012 150.23 628.02 145.011 628.02 139.241 C 628.02 133.133 630.077 127.933 634.196 123.646 C 638.309 119.364 643.425 117.219 649.534 117.219 C 650.891 117.219 652.694 117.516 654.944 118.11 C 657.192 118.704 658.7 119.001 659.462 119.001 C 662.601 119.001 666.507 117.708 671.175 115.118 C 675.841 112.53 678.05 111.235 677.796 111.235 C 676.946 120.147 673.976 126.131 668.882 129.183 C 665.234 131.306 663.409 133.384 663.409 135.419 C 663.409 136.692 664.173 137.712 665.7 138.476 C 666.888 139.071 668.202 139.368 669.645 139.368 C 671.852 139.368 674.016 138.012 676.139 135.297 C 678.258 132.579 679.194 130.12 678.94 127.911 C 678.686 125.366 678.856 122.308 679.45 118.747 C 679.618 117.727 680.233 116.477 681.294 114.993 C 682.355 113.507 683.31 112.595 684.159 112.255 C 684.159 113.017 683.884 114.292 683.331 116.073 C 682.778 117.854 682.505 119.173 682.505 120.02 C 682.505 121.887 683.013 123.329 684.032 124.346 C 685.557 123.754 686.915 121.844 688.106 118.617 C 689.122 116.158 689.715 113.781 689.887 111.49 C 686.321 111.32 682.905 109.709 679.639 106.652 C 676.371 103.595 674.739 100.287 674.739 96.724 C 674.739 96.13 674.821 95.536 674.995 94.941 C 675.503 95.705 676.266 96.894 677.284 98.505 C 678.727 100.626 679.831 101.687 680.597 101.687 C 681.613 101.687 682.122 100.626 682.122 98.505 C 682.122 95.79 681.399 93.329 679.958 91.122 C 678.345 88.491 676.265 87.175 673.72 87.175 C 672.531 87.175 670.749 87.812 668.376 89.085 C 665.997 90.356 663.833 90.995 661.884 90.995 C 661.288 90.995 658.655 90.229 653.989 88.702 C 662.219 87.347 666.337 86.116 666.337 85.011 C 666.337 82.126 660.692 80.173 649.407 79.156 C 648.302 79.072 646.266 78.902 643.296 78.646 C 643.634 78.222 646.054 77.755 650.554 77.246 C 654.372 76.824 657.046 76.609 658.572 76.609 C 678.769 76.609 691.584 86.414 697.015 106.017 C 697.949 105.244 698.417 103.951 698.417 102.146 C 698.417 99.822 697.737 96.896 696.38 93.369 C 695.868 91.994 695.062 89.928 693.96 87.176 C 700.917 96.043 704.399 104.446 704.399 112.375 C 704.399 116.553 703.42 120.348 701.469 123.756 C 700.199 126.059 697.819 129 694.342 132.582 C 690.862 136.162 688.485 138.934 687.211 140.895 C 691.879 139.624 694.936 138.647 696.379 137.967 C 699.602 136.527 702.529 134.361 705.162 131.475 C 705.162 132.581 704.695 134.237 703.762 136.442 Z M 648.26 86.417 C 648.26 87.942 647.41 88.919 645.715 89.343 L 642.404 89.853 C 641.215 90.447 639.476 92.781 637.185 96.853 C 636.929 95.582 636.548 93.8 636.039 91.507 C 635.275 91.593 634.004 92.271 632.221 93.544 C 631.457 94.138 630.225 95.028 628.528 96.216 C 629.04 93.161 630.735 90.068 633.622 86.923 C 636.677 83.446 639.647 81.706 642.532 81.706 C 646.35 81.706 648.26 83.278 648.26 86.417 Z M 670.41 98.126 C 670.41 99.569 669.625 100.78 668.055 101.755 C 666.485 102.732 664.936 103.22 663.409 103.22 C 661.372 103.22 659.546 102.074 657.936 99.782 C 655.981 96.981 653.989 95.157 651.952 94.305 C 652.376 93.883 652.886 93.67 653.481 93.67 C 654.245 93.67 655.536 94.264 657.362 95.451 C 659.186 96.64 660.352 97.234 660.864 97.234 C 661.288 97.234 661.987 96.64 662.964 95.451 C 663.939 94.263 665.021 93.67 666.21 93.67 C 669.01 93.671 670.41 95.157 670.41 98.126 Z" transform="matrix(1, 0, 0, 1, 7.105427357601002e-15, 2.842170943040401e-14)"/>
</svg>