<?xml version="1.0" encoding="utf-8"?>
<svg viewBox="296.7969 69.8254 100 100" xmlns="http://www.w3.org/2000/svg">
  <g transform="matrix(1, 0, 0, 1, 821.7969360351562, 69.82536315917972)">
    <circle fill="#F8F6D8" cx="-475" cy="50" r="50"/>
  </g>
  <path fill="#0D0F0F" d="M 394.488 126.889 C 387.927 123.19 383.72 121.338 381.871 121.338 C 380.527 121.338 379.476 122.37 378.717 124.43 C 377.959 126.493 376.447 127.52 374.176 127.52 C 373.25 127.52 371.358 127.184 368.498 126.512 C 366.9 128.952 366.1 130.508 366.1 131.18 C 366.1 132.106 366.789 133.196 368.164 134.461 C 369.539 135.723 370.699 136.352 371.646 136.352 C 372.248 136.352 373.062 136.227 374.095 135.973 C 375.126 135.723 375.816 135.596 376.159 135.596 C 377.192 135.596 377.706 137.489 377.706 141.274 C 377.706 144.891 376.866 150.442 375.183 157.928 C 372.995 149.348 370.683 145.057 368.245 145.057 C 367.907 145.057 367.214 145.309 366.163 145.817 C 365.11 146.319 364.333 146.571 363.829 146.571 C 361.391 146.571 359.204 144.344 357.268 139.883 C 353.399 140.473 351.463 142.45 351.463 145.817 C 351.463 147.501 352.24 148.844 353.799 149.852 C 355.352 150.86 356.133 151.579 356.133 151.997 C 356.133 154.27 352.809 157.761 346.164 162.47 C 342.633 164.993 340.191 166.759 338.848 167.767 C 340.022 166.255 341.2 164.28 342.381 161.839 C 343.725 159.064 344.399 156.919 344.399 155.403 C 344.399 154.563 343.432 153.383 341.497 151.87 C 339.561 150.358 338.597 148.759 338.597 147.077 C 338.597 145.649 339.099 143.884 340.109 141.778 C 339.015 140.516 337.714 139.883 336.199 139.883 C 332.834 139.883 331.154 140.979 331.154 143.163 C 331.154 141.649 331.154 142.784 331.154 146.569 C 331.236 149.345 329.134 150.733 324.843 150.733 C 321.564 150.733 316.052 149.974 308.316 148.462 C 317.064 146.274 321.437 143.751 321.437 140.892 C 321.437 141.228 321.269 140.22 320.933 137.864 C 320.595 135.26 322.447 132.903 326.484 130.801 C 325.726 126.934 323.711 124.995 320.427 124.995 C 319.923 124.995 318.995 125.879 317.652 127.642 C 316.306 129.413 315.045 130.294 313.869 130.294 C 311.849 130.294 309.24 128.108 306.047 123.731 C 304.531 121.547 302.217 118.307 299.106 114.016 C 301.04 115.028 302.975 116.036 304.911 117.047 C 307.434 118.223 309.452 118.813 310.968 118.813 C 312.146 118.813 313.302 117.782 314.437 115.721 C 315.572 113.66 317.066 112.629 318.916 112.629 C 319.17 112.629 320.852 113.133 323.963 114.145 C 325.559 111.706 326.361 109.897 326.361 108.719 C 326.361 107.709 325.75 106.553 324.531 105.248 C 323.31 103.945 322.197 103.293 321.187 103.293 C 320.765 103.293 320.115 103.418 319.23 103.672 C 318.349 103.924 317.697 104.051 317.277 104.051 C 315.761 104.051 315.004 102.158 315.004 98.373 C 315.004 97.363 315.973 91.603 317.908 81.088 C 317.822 82.348 318.369 84.705 319.547 88.152 C 320.977 92.359 322.658 94.461 324.596 94.461 C 324.93 94.461 325.604 94.209 326.614 93.703 C 327.622 93.199 328.421 92.949 329.01 92.949 C 330.944 92.949 332.541 94.043 333.805 96.226 L 335.698 99.632 C 337.464 99.632 338.936 99.003 340.112 97.741 C 341.29 96.479 341.88 94.964 341.88 93.198 C 341.88 91.348 341.103 89.938 339.546 88.971 C 337.987 88.004 337.21 87.268 337.21 86.764 C 337.21 84.996 339.987 82.012 345.538 77.806 C 349.995 74.443 352.897 72.466 354.245 71.876 C 350.628 76.755 348.819 80.327 348.819 82.6 C 348.819 83.778 349.532 85.041 350.964 86.385 C 352.73 87.983 353.739 89.119 353.991 89.791 C 354.831 91.729 354.747 94.377 353.739 97.74 C 356.01 99.34 357.733 100.136 358.913 100.136 C 361.349 100.136 362.571 98.872 362.571 96.351 C 362.571 96.099 362.466 95.3 362.257 93.955 C 362.044 92.611 361.984 91.853 362.066 91.684 C 362.402 90.506 364.716 89.916 369.005 89.916 C 371.696 89.916 377.288 90.674 385.786 92.189 C 383.934 92.693 381.159 93.449 377.46 94.459 C 374.095 95.469 372.411 96.604 372.411 97.865 C 372.411 98.455 372.62 99.463 373.042 100.892 C 373.462 102.324 373.675 103.372 373.675 104.048 C 373.675 105.224 372.917 106.318 371.404 107.325 L 367.113 110.356 C 368.123 112.208 368.795 113.301 369.133 113.635 C 369.973 114.643 371.108 115.149 372.539 115.149 C 373.549 115.149 374.473 114.266 375.314 112.501 C 376.154 110.733 377.502 109.851 379.351 109.851 C 381.621 109.851 384.189 111.955 387.048 116.162 C 388.641 118.522 391.123 122.095 394.488 126.889 Z M 366.481 119.573 C 366.481 114.192 364.502 109.522 360.549 105.567 C 356.596 101.614 351.928 99.637 346.545 99.637 C 341.076 99.637 336.365 101.594 332.414 105.506 C 328.461 109.416 326.441 114.106 326.359 119.572 C 326.273 124.955 328.271 129.602 332.351 133.51 C 336.431 137.422 341.162 139.379 346.544 139.379 C 352.263 139.379 357.036 137.506 360.862 133.764 C 364.692 130.024 366.563 125.294 366.481 119.573 Z M 364.588 119.573 C 364.588 124.704 362.863 128.954 359.414 132.313 C 355.963 135.68 351.674 137.362 346.545 137.362 C 341.582 137.362 337.334 135.639 333.803 132.188 C 330.272 128.743 328.504 124.536 328.504 119.573 C 328.504 114.696 330.289 110.509 333.863 107.02 C 337.441 103.53 341.666 101.782 346.545 101.782 C 351.422 101.782 355.649 103.548 359.225 107.083 C 362.799 110.616 364.588 114.778 364.588 119.573 Z" transform="matrix(1, 0, 0, 1, 7.105427357601002e-15, 2.842170943040401e-14)"/>
</svg>