<?xml version="1.0" encoding="utf-8"?>
<svg viewBox="0 0 512 512" xmlns="http://www.w3.org/2000/svg">
  <path opacity="1.000000" stroke="none" d="M 1.101 512.961 C 1.101 512.641 1.101 512.32 1.101 512 L 93.405 512 L 93.405 1.164 C 233.233 1.164 373.116 1.164 513 1.164 C 513 1.331 513 1.499 513 1.666 L 420.261 1.666 L 420.261 512.961 C 419.219 512.961 418.177 512.961 417.134 512.961 L 257.2 360.518 L 97.265 512.961 C 65.213 512.961 33.159 512.961 1.101 512.961 Z M 372.834 446.665 C 380.969 454.342 389.103 462.018 396.749 469.233 C 396.749 340.574 396.749 210.998 396.749 81.287 C 303.449 81.287 210.4 81.287 117.331 81.287 C 117.331 211.245 117.331 340.917 117.331 470.589 C 117.69 470.84 118.049 471.09 118.408 471.341 C 119.735 469.667 120.918 467.85 122.409 466.338 C 163.941 424.212 205.507 382.119 247.059 340.014 C 255.04 331.927 260.703 331.873 268.599 339.953 C 303.188 375.348 337.763 410.757 372.834 446.665 Z M 185.5 24.999 C 162.749 24.999 139.999 24.999 117.328 24.999 C 117.328 36.031 117.328 46.431 117.328 56.731 C 210.683 56.731 303.711 56.731 396.672 56.731 C 396.672 46.01 396.672 35.614 396.672 24.999 C 326.396 24.999 256.448 24.999 185.5 24.999 Z" style="fill: rgb(76, 187, 234);"/>
  <path opacity="1.000000" stroke="none" d=" M372.588379,446.412964 C337.762817,410.756805 303.188019,375.348022 268.599060,339.953064 C260.703217,331.873199 255.039948,331.927124 247.059494,340.013733 C205.506699,382.119263 163.940689,424.211731 122.408737,466.337769 C120.917664,467.850189 119.734863,469.666504 118.408386,471.341187 C118.049202,471.090424 117.690025,470.839630 117.330841,470.588837 C117.330841,340.917084 117.330841,211.245300 117.330841,81.286606 C210.399841,81.286606 303.448639,81.286606 396.748505,81.286606 C396.748505,210.997696 396.748505,340.573517 396.748505,469.232941 C389.103424,462.018433 380.968689,454.341888 372.588379,446.412964 M339.407410,226.902679 C350.369476,215.035278 361.415527,203.243958 372.262390,191.272171 C378.871246,183.977890 375.402679,172.952469 365.818024,171.132492 C345.290070,167.234512 324.706635,163.624527 304.121185,160.038589 C301.100098,159.512329 299.188660,158.403595 297.675232,155.552567 C288.027863,137.378525 278.117889,119.344116 268.390320,101.212265 C265.879913,96.532921 262.764771,93.035217 256.976685,92.968018 C250.953537,92.898079 247.747833,96.536156 245.163788,101.365349 C235.531448,119.366791 225.895752,137.368423 215.977341,155.212158 C214.816177,157.301163 212.079269,159.366318 209.754807,159.822708 C190.071625,163.687286 170.338028,167.312988 150.565002,170.690948 C144.826538,171.671265 140.501251,173.743561 138.580948,179.559708 C136.671188,185.343948 139.533279,189.447342 143.189819,193.365646 C155.122406,206.152405 166.787064,219.200851 179.039810,231.672104 C184.870056,237.606323 187.872437,243.172165 186.249008,252.108826 C183.166092,269.079468 181.771133,286.351410 179.417023,303.462738 C178.621185,309.247345 178.748642,314.449036 183.803406,318.330475 C188.724716,322.109406 193.571487,320.921783 198.720932,318.471863 C216.836990,309.853058 235.019928,301.370514 253.298615,293.104095 C255.330551,292.185181 258.420288,292.276428 260.534454,293.117798 C266.837982,295.626434 272.899109,298.743774 279.056549,301.619904 C291.671387,307.512299 304.366699,313.239624 316.878357,319.343445 C327.446503,324.499146 335.683044,315.386749 334.742676,307.401520 C332.470245,288.104584 329.915436,268.839020 327.268188,249.589203 C326.513916,244.104187 326.418579,239.255737 331.324432,235.350327 C334.163025,233.090637 336.416534,230.095963 339.407410,226.902679 z" style="fill: rgba(240, 240, 240, 0);"/>
  <path opacity="1.000000" stroke="none" d=" M186.000000,24.999443 C256.447906,24.999443 326.395844,24.999443 396.671509,24.999443 C396.671509,35.613693 396.671509,46.010426 396.671509,56.731033 C303.710632,56.731033 210.682877,56.731033 117.327637,56.731033 C117.327637,46.431454 117.327637,36.031296 117.327637,24.999443 C139.998886,24.999443 162.749435,24.999443 186.000000,24.999443 z" style="fill: rgb(212, 75, 96);"/>
  <path opacity="1.000000" stroke="none" d=" M339.170410,227.167374 C336.416534,230.095963 334.163025,233.090637 331.324432,235.350327 C326.418579,239.255737 326.513916,244.104187 327.268188,249.589203 C329.915436,268.839020 332.470245,288.104584 334.742676,307.401520 C335.683044,315.386749 327.446503,324.499146 316.878357,319.343445 C304.366699,313.239624 291.671387,307.512299 279.056549,301.619904 C272.899109,298.743774 266.837982,295.626434 260.534454,293.117798 C258.420288,292.276428 255.330551,292.185181 253.298615,293.104095 C235.019928,301.370514 216.836990,309.853058 198.720932,318.471863 C193.571487,320.921783 188.724716,322.109406 183.803406,318.330475 C178.748642,314.449036 178.621185,309.247345 179.417023,303.462738 C181.771133,286.351410 183.166092,269.079468 186.249008,252.108826 C187.872437,243.172165 184.870056,237.606323 179.039810,231.672104 C166.787064,219.200851 155.122406,206.152405 143.189819,193.365646 C139.533279,189.447342 136.671188,185.343948 138.580948,179.559708 C140.501251,173.743561 144.826538,171.671265 150.565002,170.690948 C170.338028,167.312988 190.071625,163.687286 209.754807,159.822708 C212.079269,159.366318 214.816177,157.301163 215.977341,155.212158 C225.895752,137.368423 235.531448,119.366791 245.163788,101.365349 C247.747833,96.536156 250.953537,92.898079 256.976685,92.968018 C262.764771,93.035217 265.879913,96.532921 268.390320,101.212265 C278.117889,119.344116 288.027863,137.378525 297.675232,155.552567 C299.188660,158.403595 301.100098,159.512329 304.121185,160.038589 C324.706635,163.624527 345.290070,167.234512 365.818024,171.132492 C375.402679,172.952469 378.871246,183.977890 372.262390,191.272171 C361.415527,203.243958 350.369476,215.035278 339.170410,227.167374 M240.716721,160.210342 C238.118347,165.026001 235.968521,170.169998 232.766800,174.544022 C230.565475,177.551331 227.236420,180.787872 223.832504,181.658478 C214.383606,184.075180 204.630676,185.300827 195.000595,187.012360 C188.108078,188.237381 181.219940,189.487091 173.674576,190.843567 C174.973480,192.297165 175.616394,193.043732 176.287689,193.763840 C186.396988,204.608444 196.504715,215.454544 206.625336,226.288589 C209.762436,229.646835 212.499527,233.219116 211.874329,238.170334 C210.729950,247.233093 209.395599,256.271942 208.261398,265.335907 C207.325836,272.812347 206.564957,280.310608 205.717331,287.882507 C206.765259,287.882507 207.140045,287.990448 207.408325,287.866974 C218.393097,282.811676 229.353271,277.702667 240.348022,272.669250 C259.525208,263.889923 254.053284,263.570709 273.826508,272.693420 C285.067200,277.879486 296.306946,283.067627 307.935638,288.434174 C307.935638,286.190460 308.103455,284.545074 307.909271,282.943604 C306.229767,269.090820 304.871399,255.181824 302.588654,241.427124 C301.528412,235.038910 303.367371,230.518433 307.501556,226.137161 C318.347229,214.643250 329.068024,203.031525 340.072052,191.216064 C338.942627,190.749527 338.230042,190.299652 337.461212,190.160614 C322.449463,187.445679 307.468048,184.527954 292.395447,182.202530 C286.641113,181.314728 283.093567,178.514618 280.486908,173.640060 C273.368988,160.329453 266.133911,147.081375 258.915588,133.824707 C258.342041,132.771423 257.539825,131.842621 256.616241,130.533203 C251.225159,140.557648 246.121979,150.046722 240.716721,160.210342 z" style="fill: rgb(212, 75, 96);"/>
  <path opacity="1.000000" stroke="none" d=" M240.867767,159.873077 C246.121979,150.046722 251.225159,140.557648 256.616241,130.533203 C257.539825,131.842621 258.342041,132.771423 258.915588,133.824707 C266.133911,147.081375 273.368988,160.329453 280.486908,173.640060 C283.093567,178.514618 286.641113,181.314728 292.395447,182.202530 C307.468048,184.527954 322.449463,187.445679 337.461212,190.160614 C338.230042,190.299652 338.942627,190.749527 340.072052,191.216064 C329.068024,203.031525 318.347229,214.643250 307.501556,226.137161 C303.367371,230.518433 301.528412,235.038910 302.588654,241.427124 C304.871399,255.181824 306.229767,269.090820 307.909271,282.943604 C308.103455,284.545074 307.935638,286.190460 307.935638,288.434174 C296.306946,283.067627 285.067200,277.879486 273.826508,272.693420 C254.053284,263.570709 259.525208,263.889923 240.348022,272.669250 C229.353271,277.702667 218.393097,282.811676 207.408325,287.866974 C207.140045,287.990448 206.765259,287.882507 205.717331,287.882507 C206.564957,280.310608 207.325836,272.812347 208.261398,265.335907 C209.395599,256.271942 210.729950,247.233093 211.874329,238.170334 C212.499527,233.219116 209.762436,229.646835 206.625336,226.288589 C196.504715,215.454544 186.396988,204.608444 176.287689,193.763840 C175.616394,193.043732 174.973480,192.297165 173.674576,190.843567 C181.219940,189.487091 188.108078,188.237381 195.000595,187.012360 C204.630676,185.300827 214.383606,184.075180 223.832504,181.658478 C227.236420,180.787872 230.565475,177.551331 232.766800,174.544022 C235.968521,170.169998 238.118347,165.026001 240.867767,159.873077 z" style="fill: rgba(254, 192, 7, 0);"/>
  <rect x="380.703" y="-10.392" width="47.104" height="49.162" style="stroke: rgba(0, 0, 0, 0); fill: rgb(212, 75, 96);"/>
</svg>