<svg version="1.1" id="Layer_1" xmlns="http://www.w3.org/2000/svg" xmlns:xlink="http://www.w3.org/1999/xlink" x="0px" y="0px"
	 width="100%" viewBox="0 0 300 300" enable-background="new 0 0 300 300" xml:space="preserve">
<path fill="#0171C5" opacity="1.000000" stroke="none" 
	d="
M172.000000,301.000000 
	C114.666679,301.000000 57.833355,301.000000 1.000023,301.000000 
	C1.000015,201.000031 1.000015,101.000053 1.000008,1.000063 
	C100.999947,1.000042 200.999893,1.000042 300.999878,1.000021 
	C300.999939,100.999939 300.999939,200.999878 300.999969,300.999908 
	C258.166656,301.000000 215.333328,301.000000 172.000000,301.000000 
M275.683350,188.236755 
	C274.758881,188.662491 273.834381,189.088211 272.897308,189.413483 
	C272.897308,189.413483 272.799530,189.387253 272.123016,189.279388 
	C271.745605,189.535294 271.368195,189.791199 270.337494,189.837112 
	C270.026337,190.160934 269.715179,190.484756 268.939789,191.387878 
	C269.967285,193.992950 270.994781,196.598007 272.107025,199.898422 
	C274.221741,203.179855 275.863281,203.043869 277.485321,199.212509 
	C278.316437,199.151550 279.147583,199.090607 279.978699,199.029648 
	C279.528931,198.340164 279.079193,197.650681 278.775116,196.336197 
	C278.249817,194.154556 277.724518,191.972931 277.439026,189.630844 
	C277.439026,189.630844 277.376892,189.349091 277.576019,189.096176 
	C277.356201,189.032089 277.136353,188.968002 276.479523,188.954620 
	C276.479523,188.954620 276.042053,189.001251 275.683350,188.236755 
M171.741608,190.728149 
	C187.537811,208.663437 219.164139,203.595474 228.426071,188.325012 
	C224.367096,185.246872 220.294662,182.158524 216.311234,179.137680 
	C200.900940,190.752747 183.078873,187.679214 180.541458,172.814941 
	C198.018997,172.814941 215.422668,172.814941 232.921326,172.814941 
	C234.230347,159.151138 231.082993,147.513977 220.501526,138.833496 
	C206.753082,127.554947 185.766479,128.889694 173.100220,141.564987 
	C160.087418,154.587128 159.315811,174.996475 171.741608,190.728149 
M73.774788,150.164398 
	C79.244003,146.040894 85.230515,145.646088 91.210205,148.490097 
	C97.213440,151.345322 98.833672,157.035721 98.978325,163.121109 
	C99.164391,170.948471 99.037285,178.783295 99.042320,186.614914 
	C99.045273,191.208130 99.042862,195.801331 99.042862,200.373199 
	C105.462524,200.373199 111.174629,200.373199 116.994164,200.373199 
	C116.994164,185.654404 117.457504,171.316620 116.844841,157.024948 
	C116.370583,145.961639 111.323761,136.949112 100.242424,133.111374 
	C89.082596,129.246429 78.547562,130.434723 69.747353,139.275513 
	C69.162506,139.863068 68.367302,140.241241 67.095474,141.108551 
	C67.095474,137.890320 67.095474,135.439316 67.095474,132.915680 
	C61.198872,132.915680 55.629604,132.915680 50.084560,132.915680 
	C50.084560,155.642303 50.084560,178.023270 50.084560,200.397858 
	C56.034088,200.397858 61.582142,200.397858 67.005348,200.397858 
	C67.229927,199.714294 67.419563,199.405029 67.420601,199.095139 
	C67.456215,188.431992 67.438004,177.768509 67.508224,167.105637 
	C67.548416,161.000824 68.263649,155.082870 73.774788,150.164398 
M126.944946,174.386215 
	C127.138756,176.875580 127.169090,179.390488 127.553139,181.850143 
	C129.896591,196.858704 142.999176,204.962845 157.656433,200.577072 
	C157.656433,195.435150 157.656433,190.308090 157.656433,185.048767 
	C155.493439,184.759430 153.206039,185.035095 151.628601,184.105713 
	C149.280670,182.722382 145.774567,180.588394 145.654053,178.598633 
	C145.045639,168.554321 145.374405,158.453262 145.374405,147.931763 
	C149.544952,147.931763 153.474106,147.931763 157.626556,147.931763 
	C157.626556,142.720551 157.626556,137.950760 157.626556,132.585846 
	C153.485687,132.585846 149.414261,132.585846 144.770721,132.585846 
	C144.770721,123.443138 144.770721,114.877174 144.770721,106.306458 
	C138.582520,106.306458 132.983215,106.306458 126.922157,106.306458 
	C126.922157,128.845520 126.922157,151.130142 126.944946,174.386215 
M242.327347,128.499832 
	C242.327347,152.543152 242.327347,176.586472 242.327347,200.574371 
	C248.774155,200.574371 254.359955,200.574371 260.098145,200.574371 
	C260.098145,167.249985 260.098145,134.209839 260.098145,101.198608 
	C254.076813,101.198608 248.366074,101.198608 242.327362,101.198608 
	C242.327362,110.234894 242.327362,118.867363 242.327347,128.499832 
M36.219337,200.776917 
	C39.817055,201.135757 39.171703,198.535507 39.175034,196.467361 
	C39.194347,184.475769 39.184196,172.484131 39.184101,160.492508 
	C39.184029,151.352692 39.184090,142.212860 39.184090,132.877655 
	C33.031879,132.877655 27.283854,132.877655 21.533922,132.877655 
	C21.533922,155.583954 21.533922,177.973907 21.533922,200.779663 
	C26.334984,200.779663 30.801035,200.779663 36.219337,200.776917 
M24.811205,102.112076 
	C22.143389,101.950737 20.838158,103.072853 20.907167,105.877876 
	C21.361841,124.359184 17.716690,120.647049 35.746025,121.084618 
	C36.076710,121.092644 36.531574,121.201096 36.719025,121.031364 
	C37.785683,120.065468 39.508812,119.151039 39.703831,117.998352 
	C42.134014,103.633888 40.814350,102.088188 26.736338,102.100029 
	C26.404955,102.100311 26.073570,102.101318 24.811205,102.112076 
z"/>
<path fill="#F9FCFE" opacity="1.000000" stroke="none" 
	d="
M171.501526,190.465164 
	C159.315811,174.996475 160.087418,154.587128 173.100220,141.564987 
	C185.766479,128.889694 206.753082,127.554947 220.501526,138.833496 
	C231.082993,147.513977 234.230347,159.151138 232.921326,172.814941 
	C215.422668,172.814941 198.018997,172.814941 180.541458,172.814941 
	C183.078873,187.679214 200.900940,190.752747 216.311234,179.137680 
	C220.294662,182.158524 224.367096,185.246872 228.426071,188.325012 
	C219.164139,203.595474 187.537811,208.663437 171.501526,190.465164 
M208.776413,149.493179 
	C196.154114,142.138336 179.735214,150.248444 180.636475,159.861267 
	C192.312088,159.861267 203.980499,159.861267 215.648926,159.861267 
	C215.992828,159.449509 216.336731,159.037766 216.680649,158.626007 
	C214.253036,155.724762 211.825439,152.823517 208.776413,149.493179 
z"/>
<path fill="#FCFDFE" opacity="1.000000" stroke="none" 
	d="
M73.490997,150.409546 
	C68.263649,155.082870 67.548416,161.000824 67.508224,167.105637 
	C67.438004,177.768509 67.456215,188.431992 67.420601,199.095139 
	C67.419563,199.405029 67.229927,199.714294 67.005348,200.397858 
	C61.582142,200.397858 56.034088,200.397858 50.084560,200.397858 
	C50.084560,178.023270 50.084560,155.642303 50.084560,132.915680 
	C55.629604,132.915680 61.198872,132.915680 67.095474,132.915680 
	C67.095474,135.439316 67.095474,137.890320 67.095474,141.108551 
	C68.367302,140.241241 69.162506,139.863068 69.747353,139.275513 
	C78.547562,130.434723 89.082596,129.246429 100.242424,133.111374 
	C111.323761,136.949112 116.370583,145.961639 116.844841,157.024948 
	C117.457504,171.316620 116.994164,185.654404 116.994164,200.373199 
	C111.174629,200.373199 105.462524,200.373199 99.042862,200.373199 
	C99.042862,195.801331 99.045273,191.208130 99.042320,186.614914 
	C99.037285,178.783295 99.164391,170.948471 98.978325,163.121109 
	C98.833672,157.035721 97.213440,151.345322 91.210205,148.490097 
	C85.230515,145.646088 79.244003,146.040894 73.490997,150.409546 
z"/>
<path fill="#FBFDFE" opacity="1.000000" stroke="none" 
	d="
M126.933548,173.900497 
	C126.922157,151.130142 126.922157,128.845520 126.922157,106.306458 
	C132.983215,106.306458 138.582520,106.306458 144.770721,106.306458 
	C144.770721,114.877174 144.770721,123.443138 144.770721,132.585846 
	C149.414261,132.585846 153.485687,132.585846 157.626556,132.585846 
	C157.626556,137.950760 157.626556,142.720551 157.626556,147.931763 
	C153.474106,147.931763 149.544952,147.931763 145.374405,147.931763 
	C145.374405,158.453262 145.045639,168.554321 145.654053,178.598633 
	C145.774567,180.588394 149.280670,182.722382 151.628601,184.105713 
	C153.206039,185.035095 155.493439,184.759430 157.656433,185.048767 
	C157.656433,190.308090 157.656433,195.435150 157.656433,200.577072 
	C142.999176,204.962845 129.896591,196.858704 127.553139,181.850143 
	C127.169090,179.390488 127.138756,176.875580 126.933548,173.900497 
z"/>
<path fill="#F9FBFE" opacity="1.000000" stroke="none" 
	d="
M242.327362,127.999832 
	C242.327362,118.867363 242.327362,110.234894 242.327362,101.198608 
	C248.366074,101.198608 254.076813,101.198608 260.098145,101.198608 
	C260.098145,134.209839 260.098145,167.249985 260.098145,200.574371 
	C254.359955,200.574371 248.774155,200.574371 242.327347,200.574371 
	C242.327347,176.586472 242.327347,152.543152 242.327362,127.999832 
z"/>
<path fill="#FAFCFE" opacity="1.000000" stroke="none" 
	d="
M35.743210,200.778290 
	C30.801035,200.779663 26.334984,200.779663 21.533922,200.779663 
	C21.533922,177.973907 21.533922,155.583954 21.533922,132.877655 
	C27.283854,132.877655 33.031879,132.877655 39.184090,132.877655 
	C39.184090,142.212860 39.184029,151.352692 39.184101,160.492508 
	C39.184196,172.484131 39.194347,184.475769 39.175034,196.467361 
	C39.171703,198.535507 39.817055,201.135757 35.743210,200.778290 
z"/>
<path fill="#00C5FB" opacity="1.000000" stroke="none" 
	d="
M25.276695,102.107033 
	C26.073570,102.101318 26.404955,102.100311 26.736338,102.100029 
	C40.814350,102.088188 42.134014,103.633888 39.703831,117.998352 
	C39.508812,119.151039 37.785683,120.065468 36.719025,121.031364 
	C36.531574,121.201096 36.076710,121.092644 35.746025,121.084618 
	C17.716690,120.647049 21.361841,124.359184 20.907167,105.877876 
	C20.838158,103.072853 22.143389,101.950737 25.276695,102.107033 
z"/>
<path fill="#D7E9F6" opacity="1.000000" stroke="none" 
	d="
M272.022278,199.203094 
	C270.994781,196.598007 269.967285,193.992950 269.455627,191.014587 
	C270.311218,190.443222 270.651001,190.245163 270.990784,190.047104 
	C271.368195,189.791199 271.745605,189.535294 272.862671,189.531433 
	C274.801270,189.786102 276.000244,189.788696 277.199219,189.791290 
	C277.724518,191.972931 278.249817,194.154556 278.411377,196.631866 
	C277.696198,197.347382 277.344788,197.767258 276.664276,198.098480 
	C275.788727,197.255371 275.242279,196.500900 274.641907,195.671967 
	C273.518402,197.186386 272.770355,198.194748 272.022278,199.203094 
z"/>
<path fill="#2984CD" opacity="1.000000" stroke="none" 
	d="
M272.064636,199.550751 
	C272.770355,198.194748 273.518402,197.186386 274.641907,195.671967 
	C275.242279,196.500900 275.788727,197.255371 276.651794,198.357147 
	C276.977051,198.876877 276.985748,199.049301 276.994476,199.221741 
	C275.863281,203.043869 274.221741,203.179855 272.064636,199.550751 
z"/>
<path fill="#68ABDD" opacity="1.000000" stroke="none" 
	d="
M277.239899,199.217133 
	C276.985748,199.049301 276.977051,198.876877 276.980896,198.445801 
	C277.344788,197.767258 277.696198,197.347382 278.338531,196.944351 
	C279.079193,197.650681 279.528931,198.340164 279.978699,199.029663 
	C279.147583,199.090607 278.316437,199.151550 277.239899,199.217133 
z"/>
<path fill="#57A1D9" opacity="1.000000" stroke="none" 
	d="
M277.319122,189.711060 
	C276.000244,189.788696 274.801270,189.786102 273.200928,189.585373 
	C272.799530,189.387253 272.897308,189.413483 273.278839,189.326736 
	C274.454254,189.160416 275.248169,189.080826 276.042053,189.001251 
	C276.042053,189.001251 276.479523,188.954620 276.811859,189.041870 
	C277.144196,189.129105 277.376892,189.349091 277.376892,189.349091 
	C277.376892,189.349091 277.439026,189.630844 277.319122,189.711060 
z"/>
<path fill="#C9E0F3" opacity="1.000000" stroke="none" 
	d="
M275.862701,188.619003 
	C275.248169,189.080826 274.454254,189.160416 273.285126,189.376968 
	C273.834381,189.088211 274.758881,188.662491 275.862701,188.619003 
z"/>
<path fill="#57A1D9" opacity="1.000000" stroke="none" 
	d="
M277.030365,189.016510 
	C277.136353,188.968002 277.356201,189.032089 277.476440,189.222626 
	C277.376892,189.349091 277.144196,189.129105 277.030365,189.016510 
z"/>
<path fill="#C9E0F3" opacity="1.000000" stroke="none" 
	d="
M270.664124,189.942108 
	C270.651001,190.245163 270.311218,190.443222 269.687744,190.724915 
	C269.715179,190.484756 270.026337,190.160934 270.664124,189.942108 
z"/>
<path fill="#0472C5" opacity="1.000000" stroke="none" 
	d="
M209.087128,149.707733 
	C211.825439,152.823517 214.253036,155.724762 216.680649,158.626007 
	C216.336731,159.037766 215.992828,159.449509 215.648926,159.861267 
	C203.980499,159.861267 192.312088,159.861267 180.636475,159.861267 
	C179.735214,150.248444 196.154114,142.138336 209.087128,149.707733 
z"/>
</svg>