<?xml version="1.0" encoding="utf-8"?>
<svg viewBox="127.2757 174.6812 462.2146 462.7287" xmlns="http://www.w3.org/2000/svg">
  <path opacity="1.000000" stroke="none" d=" M472.605835,579.364014 C462.782318,557.686584 453.125916,536.348083 443.431671,515.026733 C436.349030,499.449402 429.204620,483.900146 422.110626,468.327942 C417.566315,458.352631 413.064484,448.357941 408.541229,438.373016 C407.930298,437.024384 407.455109,435.577759 405.999695,434.728973 C403.931732,434.831665 402.948303,436.564941 401.701843,437.803741 C389.646454,449.784943 377.392181,461.579071 365.673920,473.883026 C353.335663,486.838013 337.824646,495.371796 323.407440,505.436584 C316.985138,509.920105 316.894196,509.736847 318.813446,517.413757 C325.452515,543.969788 332.067413,570.531860 338.692078,597.091431 C340.237946,603.289124 339.610931,608.573486 334.334229,613.270325 C327.251221,619.574890 320.841675,626.632202 314.075378,633.297668 C308.131989,639.152466 302.236053,638.782349 297.359222,632.014343 C280.939209,609.226929 264.579681,586.395325 248.338577,563.480286 C245.728149,559.797119 243.726593,557.473511 238.157715,558.096985 C220.884781,560.030701 205.005768,546.779663 206.805038,528.085022 C207.388367,522.024170 204.968765,518.955261 200.308655,515.701782 C177.420441,499.722107 154.781158,483.385345 132.091583,467.122162 C126.335854,462.996674 125.622704,456.223358 130.583252,451.096680 C138.344635,443.075531 146.316589,435.257294 154.243210,427.397339 C157.124802,424.539948 160.544083,424.216553 164.408539,425.193054 C192.510208,432.293915 220.668549,439.174194 248.720673,446.463928 C253.450989,447.693176 255.770050,446.645782 258.319031,442.626648 C264.730774,432.516846 271.527496,422.637054 278.504364,412.904846 C282.973419,406.670837 288.940613,401.725800 294.364319,396.335175 C306.638550,384.135895 319.038422,372.063019 331.746460,359.585968 C325.212250,354.909424 318.514099,352.769958 312.289795,349.829224 C295.178253,341.744720 277.823639,334.175049 260.571350,326.388031 C240.293106,317.235199 220.006195,308.101379 199.751282,298.897125 C181.751984,290.717865 163.762512,282.515686 145.828140,274.195435 C138.974274,271.015747 137.075378,263.351257 142.488541,257.594147 C153.895264,245.462723 165.830658,233.820541 177.752106,222.185577 C181.470367,218.556656 186.298706,219.125931 190.934143,220.469284 C199.211166,222.867996 207.518677,225.175781 215.722275,227.805923 C218.753265,228.777664 220.657639,227.918228 222.774536,225.861008 C227.421173,221.345352 231.432495,216.016052 236.948349,212.578629 C247.152100,206.219772 260.166779,206.614380 269.162811,214.323166 C277.633636,221.581863 280.172333,231.391083 277.381744,242.368774 C277.140747,243.316788 277.045441,244.301819 276.764832,245.968323 C285.303741,248.479950 293.801147,251.035980 302.340912,253.441513 C303.967407,253.899673 305.069855,252.466614 306.137878,251.423248 C309.951843,247.697388 313.794830,243.999771 317.546906,240.212265 C325.434235,232.250381 335.110931,230.646286 345.166656,233.921417 C354.944641,237.106079 361.045471,244.055145 362.601471,254.897583 C363.246277,259.390533 362.469208,263.426453 361.722015,267.596222 C361.293213,269.989227 361.503601,271.088593 364.195496,271.847992 C376.481842,275.314178 388.752563,278.868988 400.880951,282.843536 C405.104126,284.227539 407.700409,283.043976 410.542816,280.182098 C428.271088,262.332336 446.494965,244.957245 463.799133,226.708481 C483.234589,206.212128 505.474823,190.148956 531.681091,179.566544 C543.384033,174.840759 555.016113,172.438034 567.393677,177.511475 C579.971313,182.666901 588.670959,194.958435 589.428223,208.660172 C590.051819,219.944839 585.874207,229.831467 581.674622,239.778717 C571.007568,265.044617 554.035156,285.721497 534.634277,304.720001 C517.378906,321.617523 500.484222,338.883392 483.434021,355.990387 C481.918396,357.511108 480.347595,358.803070 481.189972,361.527954 C485.353973,374.997681 489.333008,388.524567 493.398041,402.025024 C493.534302,402.477661 493.893066,402.863312 494.387573,403.671570 C501.020966,401.900391 507.652740,400.751648 514.665894,403.250305 C529.038086,408.370697 536.314880,424.934662 530.125000,439.061920 C526.788086,446.677673 520.719421,451.930389 514.945984,457.386963 C511.861389,460.302246 510.963287,462.962860 512.351074,466.975311 C514.679810,473.708496 516.576843,480.591003 518.776550,487.807770 C523.090515,486.865051 527.484070,486.653717 531.913147,486.617035 C541.729248,486.535675 550.512817,492.846191 553.925049,501.135712 C558.090088,511.254150 557.747314,521.374573 550.090027,530.109558 C546.471252,534.237671 542.490173,538.055237 538.572998,541.911743 C536.578613,543.875244 535.990723,545.894226 536.842590,548.649475 C539.489319,557.209351 541.866638,565.852356 544.491516,574.419189 C546.035645,579.458679 545.462524,583.923645 541.652039,587.741272 C530.586548,598.827515 519.569214,609.962952 508.409729,620.954041 C501.545502,627.714722 493.836639,626.447144 489.901947,617.899841 C484.067200,605.225037 478.460510,592.445312 472.605835,579.364014 M512.539062,211.175232 C503.898834,216.238693 496.045807,222.354828 488.980835,229.416779 C426.165405,292.205475 363.392365,355.036591 300.619171,417.867523 C298.504669,419.983978 296.190552,422.005981 294.525635,424.450745 C272.325378,457.049866 250.199661,489.699890 228.123108,522.382996 C224.373734,527.933777 224.713654,532.385864 228.721115,536.380554 C232.825348,540.471741 236.035553,540.578979 242.039001,536.538635 C266.874603,519.823914 291.690521,503.079987 316.491760,486.314362 C324.893829,480.634613 333.940399,475.652130 341.436371,468.946808 C353.463409,458.188446 364.439941,446.256287 375.868713,434.828461 C411.568756,399.131348 447.371216,363.535919 482.936798,327.705383 C502.990875,307.501892 524.145630,288.331482 542.688416,266.700195 C555.464600,251.796051 564.343018,234.419128 570.042053,215.582565 C571.986145,209.157013 569.849915,203.112671 565.196716,198.695221 C560.631104,194.360931 554.933777,192.153931 548.257080,194.257645 C535.799316,198.182800 524.208679,203.884857 512.539062,211.175232 M334.490967,283.221802 C319.703003,278.857330 304.902527,274.534760 290.129639,270.119873 C257.558685,260.385986 225.001755,250.605179 192.438583,240.845215 C190.658936,240.311813 188.789734,239.774445 187.258423,241.256653 C180.352463,247.941147 173.502213,254.683167 166.798080,261.241821 C168.137589,263.689850 169.909454,263.970428 171.355148,264.640259 C178.885422,268.129272 186.473007,271.494263 194.021927,274.943390 C209.717896,282.114960 225.384445,289.351105 241.095505,296.489349 C261.938446,305.959259 282.805298,315.376587 303.675476,324.786438 C316.983246,330.786560 330.337555,336.683990 343.615265,342.749512 C345.813385,343.753662 347.249756,343.468414 348.871857,341.764221 C352.084930,338.388641 355.457306,335.163452 358.794128,331.907166 C369.372253,321.584229 379.964294,311.275604 391.387177,300.146759 C371.706268,294.264282 353.495850,288.821320 334.490967,283.221802 M473.950195,535.693787 C483.384399,556.506836 492.818604,577.319946 502.827209,599.400146 C510.255890,591.739075 517.083801,584.759277 523.822632,577.694458 C525.121155,576.333069 524.518799,574.668152 524.020325,572.994629 C514.036194,539.474121 504.132111,505.929718 494.162720,472.404755 C484.996582,441.581024 475.776703,410.773254 466.561310,379.964172 C466.100250,378.422668 465.756287,376.739624 464.094818,375.970276 C450.305939,389.605347 436.606537,403.184296 422.858185,416.713501 C420.679962,418.857056 421.608795,420.826355 422.635559,423.039581 C426.969025,432.380798 431.236755,441.752655 435.495209,451.128479 C448.196869,479.093842 460.882751,507.066345 473.950195,535.693787 M309.545654,560.748352 C306.376587,548.001221 303.207489,535.254150 300.032166,522.481934 C298.992493,522.654480 298.419586,522.588989 298.053986,522.833496 C286.603973,530.490906 275.177917,538.184143 263.737823,545.856445 C261.593628,547.294495 261.642426,548.792053 263.107880,550.814087 C271.370941,562.215515 279.537689,573.686646 287.746460,585.127502 C294.088867,593.967224 300.444702,602.797241 307.026062,611.953674 C311.596832,608.613647 314.726746,604.726929 318.223175,601.240662 C319.307129,600.159790 319.178253,598.929199 318.821136,597.543945 C315.723572,585.528076 312.682037,573.497681 309.545654,560.748352 M240.885864,464.435150 C216.335022,458.209198 191.782654,451.989258 167.237381,445.741425 C165.862198,445.391357 164.529312,445.277039 163.472794,446.276123 C159.790100,449.758667 156.175827,453.313538 152.128067,457.235779 C174.233276,472.989319 195.489151,488.137543 217.152267,503.576019 C225.674377,490.842010 233.803497,478.699646 241.923859,466.551453 C242.450638,465.763428 242.566269,465.015259 240.885864,464.435150 M340.427124,253.084854 C335.091644,250.301682 331.343750,252.164810 326.023865,260.508118 C329.905151,261.633179 333.639313,262.852203 337.444275,263.781250 C341.484802,264.767731 344.335114,261.841400 343.457428,257.744202 C343.106506,256.106110 342.313324,254.647919 340.427124,253.084854 M507.197205,436.387268 C508.372223,435.206604 509.571503,434.048889 510.716675,432.839905 C512.525085,430.930786 513.572693,428.775024 512.719910,426.066620 C511.757385,423.009399 509.292175,421.591278 506.504120,420.867371 C502.931091,419.939697 499.604919,423.294495 500.542786,426.723541 C501.372803,429.758453 502.401154,432.738617 503.261383,435.765869 C503.897858,438.005646 504.935547,438.548065 507.197205,436.387268 M250.926224,238.391708 C251.582840,238.500183 252.261017,238.537872 252.892105,238.730133 C254.957291,239.359253 256.934265,240.363083 258.528168,237.687393 C259.950867,235.299103 259.558807,233.239868 258.054016,231.224579 C256.305267,228.882538 254.169250,226.724365 251.001038,227.500732 C246.947144,228.494156 244.225845,231.252426 242.589432,235.188141 C244.990326,237.113968 247.800949,237.065964 250.926224,238.391708 M535.086426,517.499695 C538.316040,512.757324 537.203552,508.074890 532.315063,505.834778 C528.942871,504.289490 524.896973,506.209381 525.462524,509.362457 C526.231812,513.651062 526.987305,518.065613 529.415039,521.904663 C531.965149,521.424683 532.960938,519.292175 535.086426,517.499695 z" style="fill: rgb(70, 193, 233);" transform="matrix(1, 0, 0, 1, 0, -7.105427357601002e-15)"/>
  <path opacity="1.000000" stroke="none" d=" M533.811646,262.448975 C518.367004,254.614044 519.875000,257.956635 526.687012,243.220535 C527.713501,240.999863 530.852051,238.468521 528.308411,236.161911 C526.034851,234.100250 523.452393,237.023605 521.132874,237.994064 C518.070251,239.275436 515.145508,240.899002 512.207947,242.462708 C509.963440,243.657501 508.439056,243.097366 507.343811,240.865585 C505.510254,237.129425 503.702545,233.377136 501.737152,229.710312 C500.436981,227.284531 501.441772,226.106583 503.584930,225.078064 C508.688232,222.628983 513.691589,219.969437 518.815552,217.566040 C531.364868,211.679764 549.112122,220.651840 548.562134,236.874298 C548.232300,246.605240 542.677246,253.609756 538.976196,261.636871 C538.063904,263.615570 536.036011,263.536652 533.811646,262.448975 z" style="fill: rgb(67, 191, 241);" transform="matrix(1, 0, 0, 1, 0, -7.105427357601002e-15)"/>
</svg>