<svg class="svg-icon" style="width: 1em; height: 1em;vertical-align: middle;fill: currentColor;overflow: hidden;" viewBox="0 0 1024 1024" version="1.1" xmlns="http://www.w3.org/2000/svg"><path d="M993.999922 724.000023H791.415938c-13.199999 0-26.343998 0.312-39.455997 0.912L601.103953 461.104044l285.895978-165.063987a29.999998 29.999998 0 0 0 10.975999-40.975997C795.231938 77.088074 572.423955 10.720079 390.31997 99.024072A209.671984 209.671984 0 0 0 211.999983 0.00008C95.103993 0.00008 0 94.208073 0 210.000064c0 103.639992 76.119994 187.695985 171.615987 206.127983-7.087999 79.239994 10.263999 158.607988 50.863996 228.935983a29.999998 29.999998 0 0 0 40.983996 10.975999l285.679978-164.935987 136.895989 239.399981c-113.311991 14.095999-221.487983 51.015996-318.511975 106.799992C283.735978 765.06402 173.559986 724.000023 61.671995 724.000023H29.999998A29.999998 29.999998 0 0 0 0 754.000021v239.999981A29.999998 29.999998 0 0 0 29.999998 1024h963.999924a29.999998 29.999998 0 0 0 29.999998-29.999998v-239.999981a29.999998 29.999998 0 0 0-29.999998-29.999998z m-164.135987-464.255963l-103.287992 59.639995C678.063947 242.528061 607.639953 163.096067 526.759959 121.60007c116.999991-11.871999 233.839982 39.655997 303.103976 138.14399zM183.519986 349.120053c-0.688 2.584-1.336 5.16-1.976 7.743999C112.623991 342.648053 59.999995 281.328058 59.999995 210.000064c0-82.711994 68.183995-149.999988 151.999988-149.999989a149.775988 149.775988 0 0 1 126.439991 69.255995C262.25598 181.752066 207.727984 258.76006 183.519986 349.120053z m77.079994 239.295981c-32.455997-69.975995-39.327997-148.351988-19.119999-223.759982a329.967974 329.967974 0 0 1 51.023996-107.807992c-4.488 90.767993 29.063998 191.455985 71.375995 271.927979l-103.279992 59.639995z m155.287988-89.655993c-37.135997-71.143994-59.407995-143.839989-63.215996-207.311984-3.784-63.007995 11.719999-109.351991 42.527997-127.15999l0.032-0.016 0.032-0.016c30.839998-17.775999 78.719994-8.031999 131.38399 26.743998 53.071996 35.039997 104.879992 90.671993 147.919988 158.399988l-258.679979 149.359988zM59.999995 964.000005V784.000019h1.672c91.311993 0 181.279986 31.303998 252.24798 86.879993a847.727934 847.727934 0 0 0-114.127991 93.119993H59.999995z m903.99993 0H289.495977a783.199939 783.199939 0 0 1 429.039967-176.671987l55.647996 97.319993a29.999998 29.999998 0 1 0 52.087995-29.783998l-40.479996-70.799994c1.872-0.016 3.736-0.064 5.615999-0.064H963.999925v179.999986z" fill="#4cbbea" /></svg>